<svg xmlns="http://www.w3.org/2000/svg" width="42.435" height="50.498" viewBox="0 0 42.435 50.498">
  <path id="AppleSvg.inline" d="M39.479,58.685c-.023-4.138,1.849-7.26,5.637-9.56-2.119-3.033-5.321-4.7-9.549-5.028-4-.316-8.377,2.334-9.977,2.334-1.691,0-5.569-2.221-8.613-2.221C10.685,44.311,4,49.227,4,59.227a28.1,28.1,0,0,0,1.623,9.154C7.067,72.519,12.275,82.665,17.709,82.5c2.841-.068,4.848-2.018,8.546-2.018,3.585,0,5.445,2.018,8.613,2.018,5.479-.079,10.192-9.3,11.567-13.45-7.351-3.461-6.956-10.147-6.956-10.361ZM33.1,40.174A10.618,10.618,0,0,0,35.8,32a11.954,11.954,0,0,0-7.655,3.935,10.785,10.785,0,0,0-2.886,8.106C28.205,44.266,30.888,42.755,33.1,40.174Z" transform="translate(-4 -32)" fill="#cbe1fa"/>
</svg>
