<svg xmlns="http://www.w3.org/2000/svg" width="38.475" height="38.475" viewBox="0 0 38.475 38.475">
  <path id="facebookIcon.inline" d="M34.352,32H4.122A4.122,4.122,0,0,0,0,36.122v30.23a4.122,4.122,0,0,0,4.122,4.122H15.909V57.394H10.5V51.237h5.41V46.545c0-5.337,3.178-8.286,8.044-8.286a32.778,32.778,0,0,1,4.768.416v5.239H26.036c-2.646,0-3.471,1.642-3.471,3.326v4h5.907l-.945,6.157H22.565v13.08H34.352a4.122,4.122,0,0,0,4.122-4.122V36.122A4.122,4.122,0,0,0,34.352,32Z" transform="translate(0 -32)" fill="#fff"/>
</svg>
