<svg xmlns="http://www.w3.org/2000/svg" width="37.91" height="37.901" viewBox="0 0 37.91 37.901">
  <path id="instagramIcon.inline" d="M18.884,41.058A9.717,9.717,0,1,0,28.6,50.776,9.7,9.7,0,0,0,18.884,41.058Zm0,16.035A6.318,6.318,0,1,1,25.2,50.776,6.329,6.329,0,0,1,18.884,57.093ZM31.266,40.661A2.267,2.267,0,1,1,29,38.394,2.261,2.261,0,0,1,31.266,40.661Zm6.436,2.3c-.144-3.036-.837-5.726-3.062-7.941S29.735,32.11,26.7,31.958c-3.129-.178-12.508-.178-15.638,0-3.028.144-5.717.837-7.941,3.053S.21,39.917.058,42.953c-.178,3.129-.178,12.508,0,15.638C.2,61.626.9,64.316,3.12,66.532s4.905,2.909,7.941,3.062c3.129.178,12.508.178,15.638,0,3.036-.144,5.726-.837,7.941-3.062s2.909-4.905,3.062-7.941C37.879,55.461,37.879,46.09,37.7,42.961ZM33.659,61.948a6.4,6.4,0,0,1-3.6,3.6c-2.495.99-8.415.761-11.172.761s-8.686.22-11.172-.761a6.4,6.4,0,0,1-3.6-3.6c-.99-2.495-.761-8.415-.761-11.172s-.22-8.686.761-11.172a6.4,6.4,0,0,1,3.6-3.6c2.495-.99,8.415-.761,11.172-.761s8.686-.22,11.172.761a6.4,6.4,0,0,1,3.6,3.6c.99,2.495.761,8.415.761,11.172S34.649,59.461,33.659,61.948Z" transform="translate(0.075 -31.825)" fill="#fff"/>
</svg>
