<svg xmlns="http://www.w3.org/2000/svg" width="45.591" height="34.217" viewBox="0 0 45.591 34.217">
  <path id="nav-bars" d="M1.628,66.285H43.962a1.526,1.526,0,0,0,1.628-1.4V61.4A1.526,1.526,0,0,0,43.962,60H1.628A1.526,1.526,0,0,0,0,61.4v3.491A1.526,1.526,0,0,0,1.628,66.285Zm0,13.966H43.962a1.526,1.526,0,0,0,1.628-1.4V75.363a1.526,1.526,0,0,0-1.628-1.4H1.628A1.526,1.526,0,0,0,0,75.363v3.491A1.526,1.526,0,0,0,1.628,80.251Zm0,13.966H43.962a1.526,1.526,0,0,0,1.628-1.4V89.328a1.526,1.526,0,0,0-1.628-1.4H1.628A1.526,1.526,0,0,0,0,89.328V92.82A1.526,1.526,0,0,0,1.628,94.217Z" transform="translate(0 -60)" fill="#fff"/>
</svg>
