<svg xmlns="http://www.w3.org/2000/svg" width="49.645" height="49.645" viewBox="0 0 49.645 49.645">
  <defs>
    <style>
      .cls-1 {
        fill: #cbe1fa;
      }
    </style>
  </defs>
  <path id="WebSvg.inline" class="cls-1" d="M42.37,7.274a24.817,24.817,0,1,0,0,35.1A24.8,24.8,0,0,0,42.37,7.274ZM41.333,38.832a24.875,24.875,0,0,0-3.707-2.745,40.136,40.136,0,0,0,1.5-9.684h7.3a21.458,21.458,0,0,1-5.086,12.429ZM3.225,26.4h7.3a40.136,40.136,0,0,0,1.5,9.684,24.875,24.875,0,0,0-3.707,2.745A21.458,21.458,0,0,1,3.225,26.4ZM8.312,10.811a24.876,24.876,0,0,0,3.707,2.745,40.136,40.136,0,0,0-1.5,9.684h-7.3A21.458,21.458,0,0,1,8.312,10.811Zm14.929,3.072a21.486,21.486,0,0,1-7.372-1.868c1.341-3.453,3.813-7.594,7.372-8.62Zm0,3.169V23.24H13.686a37.261,37.261,0,0,1,1.2-8.2A24.651,24.651,0,0,0,23.241,17.052Zm0,9.351v6.188A24.651,24.651,0,0,0,14.885,34.6a37.261,37.261,0,0,1-1.2-8.2Zm0,9.357V46.248c-3.559-1.026-6.031-5.167-7.372-8.62A21.486,21.486,0,0,1,23.241,35.76Zm3.163,0a21.486,21.486,0,0,1,7.372,1.868c-1.341,3.453-3.813,7.594-7.372,8.62Zm0-3.169V26.4h9.555a37.261,37.261,0,0,1-1.2,8.2A24.651,24.651,0,0,0,26.4,32.591Zm0-9.351V17.052a24.651,24.651,0,0,0,8.356-2.011,37.261,37.261,0,0,1,1.2,8.2Zm0-9.357V3.4c3.559,1.026,6.031,5.168,7.372,8.62A21.488,21.488,0,0,1,26.4,13.883Zm7.1-8.909a21.559,21.559,0,0,1,5.606,3.58,21.736,21.736,0,0,1-2.544,1.931,23.81,23.81,0,0,0-3.062-5.511ZM13.076,10.485a21.745,21.745,0,0,1-2.544-1.931,21.559,21.559,0,0,1,5.606-3.58,23.818,23.818,0,0,0-3.062,5.511Zm0,28.673a23.812,23.812,0,0,0,3.062,5.511,21.559,21.559,0,0,1-5.606-3.58A21.736,21.736,0,0,1,13.076,39.158Zm23.494,0a21.746,21.746,0,0,1,2.544,1.931,21.559,21.559,0,0,1-5.606,3.58,23.809,23.809,0,0,0,3.062-5.511ZM39.123,23.24a40.135,40.135,0,0,0-1.5-9.684,24.881,24.881,0,0,0,3.707-2.745A21.458,21.458,0,0,1,46.419,23.24Z" transform="translate(0 0)"/>
</svg>
