<svg xmlns="http://www.w3.org/2000/svg" width="261.686" height="71" viewBox="0 0 261.686 71">
  <g id="logo-white" transform="translate(-8287 1997)">
    <text id="ToDo." transform="translate(8287 -1944)" fill="#057af0" font-size="71" font-family="Overpass-Black, Overpass" font-weight="800"><tspan x="0" y="0">To</tspan><tspan y="0" fill="#c3ddfa">Do.</tspan></text>
    <g id="Group_239" data-name="Group 239" transform="translate(-362.212 174.262)">
      <g id="Group_200" data-name="Group 200" transform="translate(8841.526 -2171)">
        <path id="check-solid" d="M23.562,120.054,1.016,95.623a3.984,3.984,0,0,1,0-5.315l4.905-5.315a3.283,3.283,0,0,1,4.905,0L26.015,101.45,58.546,66.2a3.283,3.283,0,0,1,4.905,0l4.905,5.315a3.984,3.984,0,0,1,0,5.315L28.467,120.054a3.283,3.283,0,0,1-4.905,0Z" transform="translate(0 -50.416)" fill="#deeeff"/>
        <path id="check-solid-2" data-name="check-solid" d="M23.562,120.054,1.016,95.623a3.984,3.984,0,0,1,0-5.315l4.905-5.315a3.283,3.283,0,0,1,4.905,0L26.015,101.45,58.546,66.2a3.283,3.283,0,0,1,4.905,0l4.905,5.315a3.984,3.984,0,0,1,0,5.315L28.467,120.054a3.283,3.283,0,0,1-4.905,0Z" transform="translate(0 -57.757)" fill="#c3ddfa"/>
        <path id="check-solid-3" data-name="check-solid" d="M23.562,120.054,1.016,95.623a3.984,3.984,0,0,1,0-5.315l4.905-5.315a3.283,3.283,0,0,1,4.905,0L26.015,101.45,58.546,66.2a3.283,3.283,0,0,1,4.905,0l4.905,5.315a3.984,3.984,0,0,1,0,5.315L28.467,120.054a3.283,3.283,0,0,1-4.905,0Z" transform="translate(0 -65.098)" fill="#057af0"/>
      </g>
    </g>
  </g>
</svg>
