<svg xmlns="http://www.w3.org/2000/svg" width="60" height="60" viewBox="0 0 60 60">
  <g id="logoSmall.inline" transform="translate(-8776.281 2233.719)">
    <rect id="Rectangle_140" data-name="Rectangle 140" width="60" height="60" rx="6" transform="translate(8776.281 -2233.719)" fill="#fff"/>
    <g id="Group_209" data-name="Group 209" transform="translate(8785.794 -2223.019)">
      <g id="Group_200" data-name="Group 200" transform="translate(0 0)">
        <path id="check-solid" d="M13.916,95.052.6,81.736a2.049,2.049,0,0,1,0-2.9l2.9-2.9a2.049,2.049,0,0,1,2.9,0l8.97,8.97L34.579,65.7a2.049,2.049,0,0,1,2.9,0l2.9,2.9a2.049,2.049,0,0,1,0,2.9L16.814,95.052a2.049,2.049,0,0,1-2.9,0Z" transform="translate(0 -57.096)" fill="#deeeff"/>
        <path id="check-solid-2" data-name="check-solid" d="M13.916,95.052.6,81.736a2.049,2.049,0,0,1,0-2.9l2.9-2.9a2.049,2.049,0,0,1,2.9,0l8.97,8.97L34.579,65.7a2.049,2.049,0,0,1,2.9,0l2.9,2.9a2.049,2.049,0,0,1,0,2.9L16.814,95.052a2.049,2.049,0,0,1-2.9,0Z" transform="translate(0 -61.097)" fill="#c3ddfa"/>
        <path id="check-solid-3" data-name="check-solid" d="M13.916,95.052.6,81.736a2.049,2.049,0,0,1,0-2.9l2.9-2.9a2.049,2.049,0,0,1,2.9,0l8.97,8.97L34.579,65.7a2.049,2.049,0,0,1,2.9,0l2.9,2.9a2.049,2.049,0,0,1,0,2.9L16.814,95.052a2.049,2.049,0,0,1-2.9,0Z" transform="translate(0 -65.098)" fill="#057af0"/>
      </g>
    </g>
    <g id="Group_238" data-name="Group 238" transform="translate(8785.794 -2223.019)">
      <g id="Group_200-2" data-name="Group 200" transform="translate(0 0)">
        <path id="check-solid-4" data-name="check-solid" d="M13.916,95.052.6,81.736a2.049,2.049,0,0,1,0-2.9l2.9-2.9a2.049,2.049,0,0,1,2.9,0l8.97,8.97L34.579,65.7a2.049,2.049,0,0,1,2.9,0l2.9,2.9a2.049,2.049,0,0,1,0,2.9L16.814,95.052a2.049,2.049,0,0,1-2.9,0Z" transform="translate(0 -57.096)" fill="#deeeff"/>
        <path id="check-solid-5" data-name="check-solid" d="M13.916,95.052.6,81.736a2.049,2.049,0,0,1,0-2.9l2.9-2.9a2.049,2.049,0,0,1,2.9,0l8.97,8.97L34.579,65.7a2.049,2.049,0,0,1,2.9,0l2.9,2.9a2.049,2.049,0,0,1,0,2.9L16.814,95.052a2.049,2.049,0,0,1-2.9,0Z" transform="translate(0 -61.097)" fill="#c3ddfa"/>
        <path id="check-solid-6" data-name="check-solid" d="M13.916,95.052.6,81.736a2.049,2.049,0,0,1,0-2.9l2.9-2.9a2.049,2.049,0,0,1,2.9,0l8.97,8.97L34.579,65.7a2.049,2.049,0,0,1,2.9,0l2.9,2.9a2.049,2.049,0,0,1,0,2.9L16.814,95.052a2.049,2.049,0,0,1-2.9,0Z" transform="translate(0 -65.098)" fill="#057af0"/>
      </g>
    </g>
  </g>
</svg>
