<svg id="blob-header2.inline" xmlns="http://www.w3.org/2000/svg" xmlns:xlink="http://www.w3.org/1999/xlink" width="1177" height="759" viewBox="0 0 1177 759" visibility="visible" overflow="visible">
  <defs>
    <clipPath id="clip-path">
      <rect id="Rectangle_174" data-name="Rectangle 174" width="1177" height="759" transform="translate(191 21)" fill="#fff" stroke="#707070" stroke-width="1"/>
    </clipPath>
    <clipPath id="clip-path-2">
      <rect id="Rectangle_157" data-name="Rectangle 157" width="1368" height="1067" fill="#fff" stroke="#707070" stroke-width="1"/>
    </clipPath>
    <linearGradient id="linear-gradient" x1="0.212" y1="0.75" x2="0.371" y2="0.023" gradientUnits="objectBoundingBox">
      <stop offset="0" stop-color="#057af0"/>
      <stop offset="1" stop-color="#00468d"/>
    </linearGradient>
  </defs>
  <g id="Mask_Group_2" data-name="Mask Group 2" transform="translate(-191 -21)" clip-path="url(#clip-path)">
    <g id="Mask_Group_1" data-name="Mask Group 1" transform="translate(0 21)" clip-path="url(#clip-path-2)">
      <g id="Group_370" data-name="Group 370" transform="translate(158.897 -993.359) rotate(9)">
        <path id="blob_2_" data-name="blob (2)" d="M1174.3,212.45c165.767,159.146,291.954,388.614,339.561,606.223,47.754,218.874,16.782,424.623-15.226,630.2-30.825,207.014-61.5,415.294-173.457,483.476-110.917,68.355-301.779-.685-475.782-55.747-173.114-56.155-329.074-95.8-425.168-214.8-94.912-117.557-128.774-313.024-213.55-509.534S-8.6,759.641-.046,632.038c9.588-127.431,163.27-186.175,287.252-299.5C412.225,219.393,507.544,51.666,657.066,9.6,806.736-31.206,1009.719,54.742,1174.3,212.45Z" transform="matrix(0.242, -0.97, 0.97, 0.242, 0.433, 1493.828)" fill="#deeeff"/>
        <path id="blob_2_2" data-name="blob (2)" d="M1077.123,196.154C1229.387,342.932,1345.4,554.457,1389.3,754.98c44.032,201.688,15.812,391.208-13.358,580.568-28.084,190.686-56.032,382.537-158.694,445.242-101.711,62.865-276.914-.926-436.633-51.823-158.9-51.9-302.052-88.581-390.344-198.3-87.205-108.395-118.468-288.505-196.45-469.627S-7.778,699.11-.055,581.561C8.62,464.173,149.581,410.2,263.237,305.925,377.844,201.806,465.146,47.377,602.307,8.767,739.6-28.677,925.946,50.7,1077.123,196.154Z" transform="matrix(0.242, -0.97, 0.97, 0.242, 90.158, 1450.941)" fill="#cbe1fa"/>
        <path id="blob_2_3" data-name="blob (2)" d="M984.876,180.686c139.445,135.038,245.8,329.531,286.174,513.835,40.5,185.376,14.892,359.491-11.585,533.457-25.481,175.187-50.838,351.444-144.68,408.95-92.973,57.654-253.312-1.153-399.472-48.1-145.416-47.866-276.4-81.727-357.289-182.643-79.891-99.7-108.686-265.231-180.218-431.745S-7,641.652-.063,533.648C7.744,425.792,136.631,376.355,240.485,280.66,345.209,185.113,424.9,43.307,550.328,7.98,675.882-26.277,846.426,46.867,984.876,180.686Z" transform="matrix(0.242, -0.97, 0.97, 0.242, 175.327, 1410.231)" fill="url(#linear-gradient)"/>
      </g>
    </g>
  </g>
</svg>
