<svg xmlns="http://www.w3.org/2000/svg" xmlns:xlink="http://www.w3.org/1999/xlink" width="414" height="473" viewBox="0 0 414 473">
  <defs>
    <clipPath id="clip-path">
      <rect id="Rectangle_174" data-name="Rectangle 174" width="414" height="473" fill="#fff" stroke="#707070" stroke-width="1"/>
    </clipPath>
    <clipPath id="clip-path-2">
      <rect id="Rectangle_157" data-name="Rectangle 157" width="1066.703" height="1110.181" transform="translate(-0.489)" fill="#fff" stroke="#707070" stroke-width="1"/>
    </clipPath>
    <linearGradient id="linear-gradient" x1="-0.057" y1="0.28" x2="0.467" y2="0.307" gradientUnits="objectBoundingBox">
      <stop offset="0" stop-color="#057af0"/>
      <stop offset="1" stop-color="#00468d"/>
    </linearGradient>
  </defs>
  <g id="blob-header-mobile" clip-path="url(#clip-path)">
    <g id="Mask_Group_1" data-name="Mask Group 1" transform="matrix(0.342, -0.94, 0.94, 0.342, -295.167, 592.949)" clip-path="url(#clip-path-2)">
      <g id="Group_370" data-name="Group 370" transform="translate(83.896 -920.583) rotate(9)">
        <path id="blob_2_" data-name="blob (2)" d="M1200.715,128.146c149.466,113.571,253.184,287.788,280.144,459.683,26.988,172.907-22.809,342.48-73.615,512.01-49.769,170.585-99.51,342.181-216.768,407.805-116.248,65.668-298.947,27.43-466.239-1.047-166.31-29.444-317.157-47.105-401.318-134.606C239.8,1285.545,224.4,1130.314,158.651,978.96S-22.152,681.181-1.828,577C19.508,472.867,177.235,411.02,310.6,307.708c134.38-103.268,244.4-248,396.459-295.953C859.149-35.183,1052.288,15.63,1200.715,128.146Z" transform="matrix(0.242, -0.97, 0.97, 0.242, 41.677, 1451.122)" fill="#deeeff"/>
        <path id="blob_2_2" data-name="blob (2)" d="M1087.721,115.794c135.538,102.5,229.664,259.593,254.226,414.509,24.589,155.827-20.41,308.564-66.324,461.261-44.973,153.649-89.92,308.21-196.134,367.209-105.3,59.039-270.9,24.381-422.525-1.465-150.739-26.717-287.456-42.8-363.793-121.735C217.776,1157.589,203.7,1017.7,144.006,881.251S-20.072,612.738-1.732,518.89c19.256-93.807,162.148-149.357,282.934-242.3C402.9,183.694,502.5,53.4,640.265,10.37,778.056-31.754,953.124,14.247,1087.721,115.794Z" transform="matrix(0.242, -0.97, 0.97, 0.242, 106.393, 1414)" fill="#cbe1fa"/>
        <path id="blob_2_3" data-name="blob (2)" d="M1017.122,110.678c126.871,97.585,215.053,247,238.167,394.247,23.139,148.117-18.816,293.207-61.628,438.256-41.929,145.956-83.834,292.777-183.132,348.705-98.442,55.968-253.37,22.814-395.223-1.947-141.022-25.588-268.918-41.051-340.392-116.165-70.592-74.208-83.88-207.163-139.841-336.913S-18.64,581.474-1.569,492.314c17.928-89.121,151.536-141.723,264.435-229.886C376.62,174.3,469.665,50.619,598.488,9.9,727.337-29.946,891.133,14,1017.122,110.678Z" transform="matrix(0.242, -0.97, 0.97, 0.242, 150.98, 1381.391)" fill="url(#linear-gradient)"/>
      </g>
    </g>
  </g>
</svg>
