<svg xmlns="http://www.w3.org/2000/svg" width="300.217" height="300.217" viewBox="0 0 300.217 300.217">
  <path id="HappinessCard" d="M150.108,8A150.108,150.108,0,1,0,300.217,158.108,150.082,150.082,0,0,0,150.108,8Zm0,271.163A121.055,121.055,0,1,1,271.163,158.108,121.177,121.177,0,0,1,150.108,279.163ZM101.686,148.424a19.369,19.369,0,1,0-19.369-19.369A19.348,19.348,0,0,0,101.686,148.424Zm96.844,0a19.369,19.369,0,1,0-19.369-19.369A19.348,19.348,0,0,0,198.53,148.424Zm2.421,43.943a66.122,66.122,0,0,1-101.686,0,14.527,14.527,0,1,0-22.335,18.582,95.285,95.285,0,0,0,146.356,0,14.527,14.527,0,0,0-22.335-18.582Z" transform="translate(0 -8)" fill="rgba(0,0,0,0.15)"/>
</svg>
