<svg xmlns="http://www.w3.org/2000/svg" width="342.857" height="300" viewBox="0 0 342.857 300">
  <path id="RulesCard" d="M10.714,96.286H289.286A10.711,10.711,0,0,0,300,85.571V42.714A10.711,10.711,0,0,0,289.286,32H10.714A10.711,10.711,0,0,0,0,42.714V85.571A10.711,10.711,0,0,0,10.714,96.286Zm321.429,53.571H53.571a10.711,10.711,0,0,0-10.714,10.714v42.857a10.711,10.711,0,0,0,10.714,10.714H332.143a10.711,10.711,0,0,0,10.714-10.714V160.571A10.711,10.711,0,0,0,332.143,149.857ZM289.286,267.714H10.714A10.711,10.711,0,0,0,0,278.429v42.857A10.711,10.711,0,0,0,10.714,332H289.286A10.711,10.711,0,0,0,300,321.286V278.429A10.711,10.711,0,0,0,289.286,267.714Z" transform="translate(0 -32)" fill="rgba(0,0,0,0.15)"/>
</svg>
