<svg xmlns="http://www.w3.org/2000/svg" width="300" height="300" viewBox="0 0 300 300">
  <path id="TimeCard" d="M158,8A150,150,0,1,0,308,158,149.974,149.974,0,0,0,158,8Zm0,270.968A120.968,120.968,0,1,1,278.968,158,120.934,120.934,0,0,1,158,278.968Zm37.379-63.145L144.028,178.5a7.305,7.305,0,0,1-2.964-5.867V73.323a7.279,7.279,0,0,1,7.258-7.258h19.355a7.279,7.279,0,0,1,7.258,7.258v85.706l40.4,29.4a7.254,7.254,0,0,1,1.573,10.161L205.54,214.25a7.308,7.308,0,0,1-10.161,1.573Z" transform="translate(-8 -8)" fill="rgba(0,0,0,0.15)"/>
</svg>
